<svg width="28" height="28" viewBox="0 0 28 28" fill="none" xmlns="http://www.w3.org/2000/svg">
<g id="User / User_Card_ID">
<path id="Vector" d="M10.5001 15.1667C11.7887 15.1667 12.8334 14.122 12.8334 12.8333C12.8334 11.5447 11.7887 10.5 10.5001 10.5C9.21142 10.5 8.16675 11.5447 8.16675 12.8333C8.16675 14.122 9.21142 15.1667 10.5001 15.1667Z" stroke="#387ADF" stroke-width="2" stroke-linecap="round" stroke-linejoin="round"/>
<path id="Vector_2" d="M23.3333 7H4.66667C4.02233 7 3.5 7.52233 3.5 8.16667V19.8333C3.5 20.4777 4.02234 21 4.66667 21H23.3333C23.9777 21 24.5 20.4777 24.5 19.8333V8.16667C24.5 7.52233 23.9777 7 23.3333 7Z" stroke="#387ADF" stroke-width="2" stroke-linecap="round" stroke-linejoin="round"/>
<path id="Vector_3" d="M7 21C7 19.067 8.567 17.5 10.5 17.5C12.433 17.5 14 19.067 14 21" stroke="#387ADF" stroke-width="2" stroke-linecap="round" stroke-linejoin="round"/>
<path id="Vector_4" d="M20.9999 16.3335L16.3333 16.3335" stroke="#387ADF" stroke-width="2" stroke-linecap="round" stroke-linejoin="round"/>
<path id="Vector_5" d="M21 12.8335L17.5 12.8335" stroke="#387ADF" stroke-width="2" stroke-linecap="round" stroke-linejoin="round"/>
</g>
</svg>
