<?xml version="1.0" encoding="utf-8"?>
<!-- Generator: Adobe Illustrator 24.1.2, SVG Export Plug-In . SVG Version: 6.00 Build 0)  -->
<svg version="1.1" id="Layer_1" xmlns="http://www.w3.org/2000/svg" xmlns:xlink="http://www.w3.org/1999/xlink" x="0px" y="0px"
	 viewBox="0 0 792 612" style="enable-background:new 0 0 792 612;" xml:space="preserve">
<style type="text/css">
	.st0{fill:none;stroke:#706F6B;stroke-width:0.25;stroke-miterlimit:10;}
	.st1{fill:#4976BB;}
	.st2{fill:#FBE74F;}
	.st3{fill:#FAA833;}
</style>
<line class="st0" x1="189.66" y1="437.82" x2="520.77" y2="437.82"/>
<line class="st0" x1="0.68" y1="0.3" x2="0.68" y2="612"/>
<path class="st1" d="M113.08,485.1c-2.87-2.88-5.14-6.67-6.81-11.36c-1.67-4.68-2.51-9.74-2.51-15.14c0-6.13,1.07-11.9,3.22-17.31
	l109.6-258.51h-87.75c-5.26,0-9.79-2.88-13.61-8.65c-3.82-5.76-5.73-12.62-5.73-20.55c0-8.29,1.91-15.23,5.73-20.82
	c3.82-5.58,8.36-8.38,13.61-8.38h123.21c4.3,0,8.24,1.62,11.82,4.87c3.1,2.89,5.49,6.76,7.16,11.63c1.67,4.87,2.51,9.83,2.51,14.87
	c0,6.14-1.07,11.9-3.22,17.31l-109.6,258.51h93.13c5.49,0,10.09,2.8,13.79,8.38c3.7,5.59,5.55,12.53,5.55,20.82
	c0,7.93-1.85,14.79-5.55,20.55c-3.71,5.77-8.3,8.65-13.79,8.65H123.47C119.88,489.96,116.42,488.34,113.08,485.1z"/>
<path class="st1" d="M648.19,137.53c11.7,9.79,20.95,23.3,27.76,40.52c6.8,17.22,10.21,36.71,10.21,58.46s-3.4,41.25-10.21,58.46
	c-6.8,17.22-16.06,30.73-27.76,40.51c-11.7,9.79-24.6,14.68-38.68,14.68h-32.6v108.22c0,9.07-2.09,16.68-6.27,22.84
	c-4.18,6.17-9.13,9.24-14.86,9.24c-5.97,0-10.99-3.08-15.04-9.24c-4.06-6.16-6.09-13.77-6.09-22.84V154.93
	c0-9.06,2.03-16.67,6.09-22.84c4.06-6.16,9.07-9.24,15.04-9.24h53.73C623.59,122.84,636.49,127.74,648.19,137.53z M633.68,275.93
	c6.8-10.33,10.21-23.47,10.21-39.43c0-15.95-3.4-29.1-10.21-39.43c-6.8-10.33-15.22-15.5-25.25-15.5h-31.52v109.86h31.52
	C618.46,291.43,626.88,286.26,633.68,275.93z"/>
<g>
	<ellipse class="st2" cx="328.83" cy="216.24" rx="21.45" ry="29.87"/>
	<ellipse class="st2" cx="479.36" cy="216.24" rx="21.45" ry="29.87"/>
	<path class="st3" d="M481.97,308.82h-4.64c-0.08,0-0.15,0.01-0.23,0.02c-9.35,1.57-16.84,11.65-18.53,24.62
		c-0.02,0.15-0.03,0.3-0.03,0.44v10.44v6.73c0,26.26-5.14,46.89-15.4,61.87c-10.27,14.98-23.28,22.47-39.04,22.47
		s-28.78-7.49-39.04-22.47c-10.27-14.98-15.4-35.61-15.4-61.87v-6.85v-10.2c0-0.15-0.01-0.29-0.03-0.44
		c-1.66-13.03-9.17-23.17-18.55-24.75c-0.08-0.01-0.15-0.02-0.23-0.02h-4.64c-0.08,0-0.15,0.01-0.23,0.02
		c-9.42,1.58-16.95,11.81-18.57,24.93c-0.02,0.14-0.03,0.28-0.03,0.43v9.85v7.03c0,29.29,4.3,54.38,12.89,75.25
		c8.6,20.88,20.18,36.7,34.74,47.48c14.56,10.78,30.92,16.16,49.07,16.16c18.14,0,34.5-5.38,49.07-16.16
		c14.56-10.77,26.15-26.59,34.74-47.48c8.6-20.87,12.89-45.96,12.89-75.25v-7.15v-9.62c0-0.14-0.01-0.28-0.02-0.42
		c-1.58-13.18-9.13-23.46-18.58-25.05C482.12,308.83,482.05,308.82,481.97,308.82z"/>
</g>
</svg>
